solid shape
facet normal 0.0 0.0 -1.0
  outer loop
    vertex 0 0 0.0
    vertex 2.07188199968 0.0591889052815 0.0
    vertex 2.07272727273 0.0 0.0
  endloop
endfacet
facet normal 0.0 0.0 1.0
  outer loop
    vertex 2.07272727273 0.0 1.0
    vertex 2.07188199968 0.0591889052815 1.0
    vertex 0 0 1.0
  endloop
endfacet
facet normal 0.0 0.0 -1.0
  outer loop
    vertex 0 0 0.0
    vertex 1.9127299858 0.109373857786 0.0
    vertex 2.07188199968 0.0591889052815 0.0
  endloop
endfacet
facet normal 0.0 0.0 1.0
  outer loop
    vertex 2.07188199968 0.0591889052815 1.0
    vertex 1.9127299858 0.109373857786 1.0
    vertex 0 0 1.0
  endloop
endfacet
facet normal 0.0 0.0 -1.0
  outer loop
    vertex 0 0 0.0
    vertex 1.90882667535 0.163949268971 0.0
    vertex 1.9127299858 0.109373857786 0.0
  endloop
endfacet
facet normal 0.0 0.0 1.0
  outer loop
    vertex 1.9127299858 0.109373857786 1.0
    vertex 1.90882667535 0.163949268971 1.0
    vertex 0 0 1.0
  endloop
endfacet
facet normal 0.0 0.0 -1.0
  outer loop
    vertex 0 0 0.0
    vertex 2.05921668781 0.236273104137 0.0
    vertex 1.90882667535 0.163949268971 0.0
  endloop
endfacet
facet normal 0.0 0.0 1.0
  outer loop
    vertex 1.90882667535 0.163949268971 1.0
    vertex 2.05921668781 0.236273104137 1.0
    vertex 0 0 1.0
  endloop
endfacet
facet normal 0.0 0.0 -1.0
  outer loop
    vertex 0 0 0.0
    vertex 2.05162989772 0.294979846603 0.0
    vertex 2.05921668781 0.236273104137 0.0
  endloop
endfacet
facet normal 0.0 0.0 1.0
  outer loop
    vertex 2.05921668781 0.236273104137 1.0
    vertex 2.05162989772 0.294979846603 1.0
    vertex 0 0 1.0
  endloop
endfacet
facet normal 0.0 0.0 -1.0
  outer loop
    vertex 0 0 0.0
    vertex 1.88779462529 0.326695717856 0.0
    vertex 2.05162989772 0.294979846603 0.0
  endloop
endfacet
facet normal 0.0 0.0 1.0
  outer loop
    vertex 2.05162989772 0.294979846603 1.0
    vertex 1.88779462529 0.326695717856 1.0
    vertex 0 0 1.0
  endloop
endfacet
facet normal 0.0 0.0 -1.0
  outer loop
    vertex 0 0 0.0
    vertex 1.87769562959 0.380470448207 0.0
    vertex 1.88779462529 0.326695717856 0.0
  endloop
endfacet
facet normal 0.0 0.0 1.0
  outer loop
    vertex 1.88779462529 0.326695717856 1.0
    vertex 1.87769562959 0.380470448207 1.0
    vertex 0 0 1.0
  endloop
endfacet
facet normal 0.0 0.0 -1.0
  outer loop
    vertex 0 0 0.0
    vertex 2.01886106421 0.469466027028 0.0
    vertex 1.87769562959 0.380470448207 0.0
  endloop
endfacet
facet normal 0.0 0.0 1.0
  outer loop
    vertex 1.87769562959 0.380470448207 1.0
    vertex 2.01886106421 0.469466027028 1.0
    vertex 0 0 1.0
  endloop
endfacet
facet normal 0.0 0.0 -1.0
  outer loop
    vertex 0 0 0.0
    vertex 2.00463166247 0.52692527451 0.0
    vertex 2.01886106421 0.469466027028 0.0
  endloop
endfacet
facet normal 0.0 0.0 1.0
  outer loop
    vertex 2.01886106421 0.469466027028 1.0
    vertex 2.00463166247 0.52692527451 1.0
    vertex 0 0 1.0
  endloop
endfacet
facet normal 0.0 0.0 -1.0
  outer loop
    vertex 0 0 0.0
    vertex 1.83824897483 0.539758599627 0.0
    vertex 2.00463166247 0.52692527451 0.0
  endloop
endfacet
facet normal 0.0 0.0 1.0
  outer loop
    vertex 2.00463166247 0.52692527451 1.0
    vertex 1.83824897483 0.539758599627 1.0
    vertex 0 0 1.0
  endloop
endfacet
facet normal 0.0 0.0 -1.0
  outer loop
    vertex 0 0 0.0
    vertex 1.82208594973 0.592031613296 0.0
    vertex 1.83824897483 0.539758599627 0.0
  endloop
endfacet
facet normal 0.0 0.0 1.0
  outer loop
    vertex 1.83824897483 0.539758599627 1.0
    vertex 1.82208594973 0.592031613296 1.0
    vertex 0 0 1.0
  endloop
endfacet
facet normal 0.0 0.0 -1.0
  outer loop
    vertex 0 0 0.0
    vertex 1.95218649918 0.696538742301 0.0
    vertex 1.82208594973 0.592031613296 0.0
  endloop
endfacet
facet normal 0.0 0.0 1.0
  outer loop
    vertex 1.82208594973 0.592031613296 1.0
    vertex 1.95218649918 0.696538742301 1.0
    vertex 0 0 1.0
  endloop
endfacet
facet normal 0.0 0.0 -1.0
  outer loop
    vertex 0 0 0.0
    vertex 1.93149998782 0.752001425636 0.0
    vertex 1.95218649918 0.696538742301 0.0
  endloop
endfacet
facet normal 0.0 0.0 1.0
  outer loop
    vertex 1.95218649918 0.696538742301 1.0
    vertex 1.93149998782 0.752001425636 1.0
    vertex 0 0 1.0
  endloop
endfacet
facet normal 0.0 0.0 -1.0
  outer loop
    vertex 0 0 0.0
    vertex 1.76473893775 0.745784902598 0.0
    vertex 1.93149998782 0.752001425636 0.0
  endloop
endfacet
facet normal 0.0 0.0 1.0
  outer loop
    vertex 1.93149998782 0.752001425636 1.0
    vertex 1.76473893775 0.745784902598 1.0
    vertex 0 0 1.0
  endloop
endfacet
facet normal 0.0 0.0 -1.0
  outer loop
    vertex 0 0 0.0
    vertex 1.74272259299 0.79587474091 0.0
    vertex 1.76473893775 0.745784902598 0.0
  endloop
endfacet
facet normal 0.0 0.0 1.0
  outer loop
    vertex 1.76473893775 0.745784902598 1.0
    vertex 1.74272259299 0.79587474091 1.0
    vertex 0 0 1.0
  endloop
endfacet
facet normal 0.0 0.0 -1.0
  outer loop
    vertex 0 0 0.0
    vertex 1.86006219765 0.91453100985 0.0
    vertex 1.74272259299 0.79587474091 0.0
  endloop
endfacet
facet normal 0.0 0.0 1.0
  outer loop
    vertex 1.74272259299 0.79587474091 1.0
    vertex 1.86006219765 0.91453100985 1.0
    vertex 0 0 1.0
  endloop
endfacet
facet normal 0.0 0.0 -1.0
  outer loop
    vertex 0 0 0.0
    vertex 1.83318825698 0.96727408814 0.0
    vertex 1.86006219765 0.91453100985 0.0
  endloop
endfacet
facet normal 0.0 0.0 1.0
  outer loop
    vertex 1.86006219765 0.91453100985 1.0
    vertex 1.83318825698 0.96727408814 1.0
    vertex 0 0 1.0
  endloop
endfacet
facet normal 0.0 0.0 -1.0
  outer loop
    vertex 0 0 0.0
    vertex 1.66822282979 0.942088758832 0.0
    vertex 1.83318825698 0.96727408814 0.0
  endloop
endfacet
facet normal 0.0 0.0 1.0
  outer loop
    vertex 1.83318825698 0.96727408814 1.0
    vertex 1.66822282979 0.942088758832 1.0
    vertex 0 0 1.0
  endloop
endfacet
facet normal 0.0 0.0 -1.0
  outer loop
    vertex 0 0 0.0
    vertex 1.6406401821 0.989342424142 0.0
    vertex 1.66822282979 0.942088758832 0.0
  endloop
endfacet
facet normal 0.0 0.0 1.0
  outer loop
    vertex 1.66822282979 0.942088758832 1.0
    vertex 1.6406401821 0.989342424142 1.0
    vertex 0 0 1.0
  endloop
endfacet
facet normal 0.0 0.0 -1.0
  outer loop
    vertex 0 0 0.0
    vertex 1.74368914078 1.12060096709 0.0
    vertex 1.6406401821 0.989342424142 0.0
  endloop
endfacet
facet normal 0.0 0.0 1.0
  outer loop
    vertex 1.6406401821 0.989342424142 1.0
    vertex 1.74368914078 1.12060096709 1.0
    vertex 0 0 1.0
  endloop
endfacet
facet normal 0.0 0.0 -1.0
  outer loop
    vertex 0 0 0.0
    vertex 1.7109781137 1.16993685365 0.0
    vertex 1.74368914078 1.12060096709 0.0
  endloop
endfacet
facet normal 0.0 0.0 1.0
  outer loop
    vertex 1.74368914078 1.12060096709 1.0
    vertex 1.7109781137 1.16993685365 1.0
    vertex 0 0 1.0
  endloop
endfacet
facet normal 0.0 0.0 -1.0
  outer loop
    vertex 0 0 0.0
    vertex 1.54995888602 1.12611104736 0.0
    vertex 1.7109781137 1.16993685365 0.0
  endloop
endfacet
facet normal 0.0 0.0 1.0
  outer loop
    vertex 1.7109781137 1.16993685365 1.0
    vertex 1.54995888602 1.12611104736 1.0
    vertex 0 0 1.0
  endloop
endfacet
facet normal 0.0 0.0 -1.0
  outer loop
    vertex 0 0 0.0
    vertex 1.51716951741 1.16991251587 0.0
    vertex 1.54995888602 1.12611104736 0.0
  endloop
endfacet
facet normal 0.0 0.0 1.0
  outer loop
    vertex 1.54995888602 1.12611104736 1.0
    vertex 1.51716951741 1.16991251587 1.0
    vertex 0 0 1.0
  endloop
endfacet
facet normal 0.0 0.0 -1.0
  outer loop
    vertex 0 0 0.0
    vertex 1.60458442932 1.31206217699 0.0
    vertex 1.51716951741 1.16991251587 0.0
  endloop
endfacet
facet normal 0.0 0.0 1.0
  outer loop
    vertex 1.51716951741 1.16991251587 1.0
    vertex 1.60458442932 1.31206217699 1.0
    vertex 0 0 1.0
  endloop
endfacet
facet normal 0.0 0.0 -1.0
  outer loop
    vertex 0 0 0.0
    vertex 1.56646275412 1.35734770309 0.0
    vertex 1.60458442932 1.31206217699 0.0
  endloop
endfacet
facet normal 0.0 0.0 1.0
  outer loop
    vertex 1.60458442932 1.31206217699 1.0
    vertex 1.56646275412 1.35734770309 1.0
    vertex 0 0 1.0
  endloop
endfacet
facet normal 0.0 0.0 -1.0
  outer loop
    vertex 0 0 0.0
    vertex 1.41148885782 1.29545275621 0.0
    vertex 1.56646275412 1.35734770309 0.0
  endloop
endfacet
facet normal 0.0 0.0 1.0
  outer loop
    vertex 1.56646275412 1.35734770309 1.0
    vertex 1.41148885782 1.29545275621 1.0
    vertex 0 0 1.0
  endloop
endfacet
facet normal 0.0 0.0 -1.0
  outer loop
    vertex 0 0 0.0
    vertex 1.37392022784 1.33523100881 0.0
    vertex 1.41148885782 1.29545275621 0.0
  endloop
endfacet
facet normal 0.0 0.0 1.0
  outer loop
    vertex 1.41148885782 1.29545275621 1.0
    vertex 1.37392022784 1.33523100881 1.0
    vertex 0 0 1.0
  endloop
endfacet
facet normal 0.0 0.0 -1.0
  outer loop
    vertex 0 0 0.0
    vertex 1.44456150594 1.48641864986 0.0
    vertex 1.37392022784 1.33523100881 0.0
  endloop
endfacet
facet normal 0.0 0.0 1.0
  outer loop
    vertex 1.37392022784 1.33523100881 1.0
    vertex 1.44456150594 1.48641864986 1.0
    vertex 0 0 1.0
  endloop
endfacet
facet normal 0.0 0.0 -1.0
  outer loop
    vertex 0 0 0.0
    vertex 1.40152615693 1.52706344942 0.0
    vertex 1.44456150594 1.48641864986 0.0
  endloop
endfacet
facet normal 0.0 0.0 1.0
  outer loop
    vertex 1.44456150594 1.48641864986 1.0
    vertex 1.40152615693 1.52706344942 1.0
    vertex 0 0 1.0
  endloop
endfacet
facet normal 0.0 0.0 -1.0
  outer loop
    vertex 0 0 0.0
    vertex 1.25461791377 1.44790625725 0.0
    vertex 1.40152615693 1.52706344942 0.0
  endloop
endfacet
facet normal 0.0 0.0 1.0
  outer loop
    vertex 1.40152615693 1.52706344942 1.0
    vertex 1.25461791377 1.44790625725 1.0
    vertex 0 0 1.0
  endloop
endfacet
facet normal 0.0 0.0 -1.0
  outer loop
    vertex 0 0 0.0
    vertex 1.21275978696 1.48314272357 0.0
    vertex 1.25461791377 1.44790625725 0.0
  endloop
endfacet
facet normal 0.0 0.0 1.0
  outer loop
    vertex 1.25461791377 1.44790625725 1.0
    vertex 1.21275978696 1.48314272357 1.0
    vertex 0 0 1.0
  endloop
endfacet
facet normal 0.0 0.0 -1.0
  outer loop
    vertex 0 0 0.0
    vertex 1.26570651415 1.64139738246 0.0
    vertex 1.21275978696 1.48314272357 0.0
  endloop
endfacet
facet normal 0.0 0.0 1.0
  outer loop
    vertex 1.21275978696 1.48314272357 1.0
    vertex 1.26570651415 1.64139738246 1.0
    vertex 0 0 1.0
  endloop
endfacet
facet normal 0.0 0.0 -1.0
  outer loop
    vertex 0 0 0.0
    vertex 1.21831852293 1.67687158834 0.0
    vertex 1.26570651415 1.64139738246 0.0
  endloop
endfacet
facet normal 0.0 0.0 1.0
  outer loop
    vertex 1.26570651415 1.64139738246 1.0
    vertex 1.21831852293 1.67687158834 1.0
    vertex 0 0 1.0
  endloop
endfacet
facet normal 0.0 0.0 -1.0
  outer loop
    vertex 0 0 0.0
    vertex 1.08139110652 1.58148408594 0.0
    vertex 1.21831852293 1.67687158834 0.0
  endloop
endfacet
facet normal 0.0 0.0 1.0
  outer loop
    vertex 1.21831852293 1.67687158834 1.0
    vertex 1.08139110652 1.58148408594 1.0
    vertex 0 0 1.0
  endloop
endfacet
facet normal 0.0 0.0 -1.0
  outer loop
    vertex 0 0 0.0
    vertex 1.03578916758 1.61171940475 0.0
    vertex 1.08139110652 1.58148408594 0.0
  endloop
endfacet
facet normal 0.0 0.0 1.0
  outer loop
    vertex 1.08139110652 1.58148408594 1.0
    vertex 1.03578916758 1.61171940475 1.0
    vertex 0 0 1.0
  endloop
endfacet
facet normal 0.0 0.0 -1.0
  outer loop
    vertex 0 0 0.0
    vertex 1.07035110231 1.77497798998 0.0
    vertex 1.03578916758 1.61171940475 0.0
  endloop
endfacet
facet normal 0.0 0.0 1.0
  outer loop
    vertex 1.03578916758 1.61171940475 1.0
    vertex 1.07035110231 1.77497798998 1.0
    vertex 0 0 1.0
  endloop
endfacet
facet normal 0.0 0.0 -1.0
  outer loop
    vertex 0 0 0.0
    vertex 1.01922824381 1.80481914167 0.0
    vertex 1.07035110231 1.77497798998 0.0
  endloop
endfacet
facet normal 0.0 0.0 1.0
  outer loop
    vertex 1.07035110231 1.77497798998 1.0
    vertex 1.01922824381 1.80481914167 1.0
    vertex 0 0 1.0
  endloop
endfacet
facet normal 0.0 0.0 -1.0
  outer loop
    vertex 0 0 0.0
    vertex 0.894066712417 1.694444851 0.0
    vertex 1.01922824381 1.80481914167 0.0
  endloop
endfacet
facet normal 0.0 0.0 1.0
  outer loop
    vertex 1.01922824381 1.80481914167 1.0
    vertex 0.894066712417 1.694444851 1.0
    vertex 0 0 1.0
  endloop
endfacet
facet normal 0.0 0.0 -1.0
  outer loop
    vertex 0 0 0.0
    vertex 0.845315452367 1.71928485869 0.0
    vertex 0.894066712417 1.694444851 0.0
  endloop
endfacet
facet normal 0.0 0.0 1.0
  outer loop
    vertex 0.894066712417 1.694444851 1.0
    vertex 0.845315452367 1.71928485869 1.0
    vertex 0 0 1.0
  endloop
endfacet
facet normal 0.0 0.0 -1.0
  outer loop
    vertex 0 0 0.0
    vertex 0.861042026949 1.88541904492 0.0
    vertex 0.845315452367 1.71928485869 0.0
  endloop
endfacet
facet normal 0.0 0.0 1.0
  outer loop
    vertex 0.845315452367 1.71928485869 1.0
    vertex 0.861042026949 1.88541904492 1.0
    vertex 0 0 1.0
  endloop
endfacet
facet normal 0.0 0.0 -1.0
  outer loop
    vertex 0 0 0.0
    vertex 0.806850765822 1.90923811737 0.0
    vertex 0.861042026949 1.88541904492 0.0
  endloop
endfacet
facet normal 0.0 0.0 1.0
  outer loop
    vertex 0.861042026949 1.88541904492 1.0
    vertex 0.806850765822 1.90923811737 1.0
    vertex 0 0 1.0
  endloop
endfacet
facet normal 0.0 0.0 -1.0
  outer loop
    vertex 0 0 0.0
    vertex 0.695086791422 1.78531593611 0.0
    vertex 0.806850765822 1.90923811737 0.0
  endloop
endfacet
facet normal 0.0 0.0 1.0
  outer loop
    vertex 0.806850765822 1.90923811737 1.0
    vertex 0.695086791422 1.78531593611 1.0
    vertex 0 0 1.0
  endloop
endfacet
facet normal 0.0 0.0 -1.0
  outer loop
    vertex 0 0 0.0
    vertex 0.643821757489 1.80443680519 0.0
    vertex 0.695086791422 1.78531593611 0.0
  endloop
endfacet
facet normal 0.0 0.0 1.0
  outer loop
    vertex 0.695086791422 1.78531593611 1.0
    vertex 0.643821757489 1.80443680519 1.0
    vertex 0 0 1.0
  endloop
endfacet
facet normal 0.0 0.0 -1.0
  outer loop
    vertex 0 0 0.0
    vertex 0.640507951977 1.97128077923 0.0
    vertex 0.643821757489 1.80443680519 0.0
  endloop
endfacet
facet normal 0.0 0.0 1.0
  outer loop
    vertex 0.643821757489 1.80443680519 1.0
    vertex 0.640507951977 1.97128077923 1.0
    vertex 0 0 1.0
  endloop
endfacet
facet normal 0.0 0.0 -1.0
  outer loop
    vertex 0 0 0.0
    vertex 0.58395475418 1.9887672544 0.0
    vertex 0.640507951977 1.97128077923 0.0
  endloop
endfacet
facet normal 0.0 0.0 1.0
  outer loop
    vertex 0.640507951977 1.97128077923 1.0
    vertex 0.58395475418 1.9887672544 1.0
    vertex 0 0 1.0
  endloop
endfacet
facet normal 0.0 0.0 -1.0
  outer loop
    vertex 0 0 0.0
    vertex 0.487045351102 1.8529126977 0.0
    vertex 0.58395475418 1.9887672544 0.0
  endloop
endfacet
facet normal 0.0 0.0 1.0
  outer loop
    vertex 0.58395475418 1.9887672544 1.0
    vertex 0.487045351102 1.8529126977 1.0
    vertex 0 0 1.0
  endloop
endfacet
facet normal 0.0 0.0 -1.0
  outer loop
    vertex 0 0 0.0
    vertex 0.433934861403 1.8660651584 0.0
    vertex 0.487045351102 1.8529126977 0.0
  endloop
endfacet
facet normal 0.0 0.0 1.0
  outer loop
    vertex 0.487045351102 1.8529126977 1.0
    vertex 0.433934861403 1.8660651584 1.0
    vertex 0 0 1.0
  endloop
endfacet
facet normal 0.0 0.0 -1.0
  outer loop
    vertex 0 0 0.0
    vertex 0.41162387632 2.0314438539 0.0
    vertex 0.433934861403 1.8660651584 0.0
  endloop
endfacet
facet normal 0.0 0.0 1.0
  outer loop
    vertex 0.433934861403 1.8660651584 1.0
    vertex 0.41162387632 2.0314438539 1.0
    vertex 0 0 1.0
  endloop
endfacet
facet normal 0.0 0.0 -1.0
  outer loop
    vertex 0 0 0.0
    vertex 0.353445999275 2.04236976885 0.0
    vertex 0.41162387632 2.0314438539 0.0
  endloop
endfacet
facet normal 0.0 0.0 1.0
  outer loop
    vertex 0.41162387632 2.0314438539 1.0
    vertex 0.353445999275 2.04236976885 1.0
    vertex 0 0 1.0
  endloop
endfacet
facet normal 0.0 0.0 -1.0
  outer loop
    vertex 0 0 0.0
    vertex 0.272654529792 1.89635390862 0.0
    vertex 0.353445999275 2.04236976885 0.0
  endloop
endfacet
facet normal 0.0 0.0 1.0
  outer loop
    vertex 0.353445999275 2.04236976885 1.0
    vertex 0.272654529792 1.89635390862 1.0
    vertex 0 0 1.0
  endloop
endfacet
facet normal 0.0 0.0 -1.0
  outer loop
    vertex 0 0 0.0
    vertex 0.218390960782 1.90336649849 0.0
    vertex 0.272654529792 1.89635390862 0.0
  endloop
endfacet
facet normal 0.0 0.0 1.0
  outer loop
    vertex 0.272654529792 1.89635390862 1.0
    vertex 0.218390960782 1.90336649849 1.0
    vertex 0 0 1.0
  endloop
endfacet
facet normal 0.0 0.0 -1.0
  outer loop
    vertex 0 0 0.0
    vertex 0.177373653938 2.06512395124 0.0
    vertex 0.218390960782 1.90336649849 0.0
  endloop
endfacet
facet normal 0.0 0.0 1.0
  outer loop
    vertex 0.218390960782 1.90336649849 1.0
    vertex 0.177373653938 2.06512395124 1.0
    vertex 0 0 1.0
  endloop
endfacet
facet normal 0.0 0.0 -1.0
  outer loop
    vertex 0 0 0.0
    vertex 0.118329535243 2.06934686996 0.0
    vertex 0.177373653938 2.06512395124 0.0
  endloop
endfacet
facet normal 0.0 0.0 1.0
  outer loop
    vertex 0.177373653938 2.06512395124 1.0
    vertex 0.118329535243 2.06934686996 1.0
    vertex 0 0 1.0
  endloop
endfacet
facet normal 0.0 0.0 -1.0
  outer loop
    vertex 0 0 0.0
    vertex 0.0547092397133 1.91507324623 0.0
    vertex 0.118329535243 2.06934686996 0.0
  endloop
endfacet
facet normal 0.0 0.0 1.0
  outer loop
    vertex 0.118329535243 2.06934686996 1.0
    vertex 0.0547092397133 1.91507324623 1.0
    vertex 0 0 1.0
  endloop
endfacet
facet normal 0.0 0.0 -1.0
  outer loop
    vertex 0 0 0.0
    vertex 5.42717422475e-16 1.91585454545 0.0
    vertex 0.0547092397133 1.91507324623 0.0
  endloop
endfacet
facet normal 0.0 0.0 1.0
  outer loop
    vertex 0.0547092397133 1.91507324623 1.0
    vertex 5.42717422475e-16 1.91585454545 1.0
    vertex 0 0 1.0
  endloop
endfacet
facet normal 0.0 0.0 -1.0
  outer loop
    vertex 0 0 0.0
    vertex -0.0591889052815 2.07188199968 0.0
    vertex 5.42717422475e-16 1.91585454545 0.0
  endloop
endfacet
facet normal 0.0 0.0 1.0
  outer loop
    vertex 5.42717422475e-16 1.91585454545 1.0
    vertex -0.0591889052815 2.07188199968 1.0
    vertex 0 0 1.0
  endloop
endfacet
facet normal 0.0 0.0 -1.0
  outer loop
    vertex 0 0 0.0
    vertex -0.118329535243 2.06934686996 0.0
    vertex -0.0591889052815 2.07188199968 0.0
  endloop
endfacet
facet normal 0.0 0.0 1.0
  outer loop
    vertex -0.0591889052815 2.07188199968 1.0
    vertex -0.118329535243 2.06934686996 1.0
    vertex 0 0 1.0
  endloop
endfacet
facet normal 0.0 0.0 -1.0
  outer loop
    vertex 0 0 0.0
    vertex -0.163949268971 1.90882667535 0.0
    vertex -0.118329535243 2.06934686996 0.0
  endloop
endfacet
facet normal 0.0 0.0 1.0
  outer loop
    vertex -0.118329535243 2.06934686996 1.0
    vertex -0.163949268971 1.90882667535 1.0
    vertex 0 0 1.0
  endloop
endfacet
facet normal 0.0 0.0 -1.0
  outer loop
    vertex 0 0 0.0
    vertex -0.218390960782 1.90336649849 0.0
    vertex -0.163949268971 1.90882667535 0.0
  endloop
endfacet
facet normal 0.0 0.0 1.0
  outer loop
    vertex -0.163949268971 1.90882667535 1.0
    vertex -0.218390960782 1.90336649849 1.0
    vertex 0 0 1.0
  endloop
endfacet
facet normal 0.0 0.0 -1.0
  outer loop
    vertex 0 0 0.0
    vertex -0.294979846603 2.05162989772 0.0
    vertex -0.218390960782 1.90336649849 0.0
  endloop
endfacet
facet normal 0.0 0.0 1.0
  outer loop
    vertex -0.218390960782 1.90336649849 1.0
    vertex -0.294979846603 2.05162989772 1.0
    vertex 0 0 1.0
  endloop
endfacet
facet normal 0.0 0.0 -1.0
  outer loop
    vertex 0 0 0.0
    vertex -0.353445999275 2.04236976885 0.0
    vertex -0.294979846603 2.05162989772 0.0
  endloop
endfacet
facet normal 0.0 0.0 1.0
  outer loop
    vertex -0.294979846603 2.05162989772 1.0
    vertex -0.353445999275 2.04236976885 1.0
    vertex 0 0 1.0
  endloop
endfacet
facet normal 0.0 0.0 -1.0
  outer loop
    vertex 0 0 0.0
    vertex -0.380470448207 1.87769562959 0.0
    vertex -0.353445999275 2.04236976885 0.0
  endloop
endfacet
facet normal 0.0 0.0 1.0
  outer loop
    vertex -0.353445999275 2.04236976885 1.0
    vertex -0.380470448207 1.87769562959 1.0
    vertex 0 0 1.0
  endloop
endfacet
facet normal 0.0 0.0 -1.0
  outer loop
    vertex 0 0 0.0
    vertex -0.433934861403 1.8660651584 0.0
    vertex -0.380470448207 1.87769562959 0.0
  endloop
endfacet
facet normal 0.0 0.0 1.0
  outer loop
    vertex -0.380470448207 1.87769562959 1.0
    vertex -0.433934861403 1.8660651584 1.0
    vertex 0 0 1.0
  endloop
endfacet
facet normal 0.0 0.0 -1.0
  outer loop
    vertex 0 0 0.0
    vertex -0.52692527451 2.00463166247 0.0
    vertex -0.433934861403 1.8660651584 0.0
  endloop
endfacet
facet normal 0.0 0.0 1.0
  outer loop
    vertex -0.433934861403 1.8660651584 1.0
    vertex -0.52692527451 2.00463166247 1.0
    vertex 0 0 1.0
  endloop
endfacet
facet normal 0.0 0.0 -1.0
  outer loop
    vertex 0 0 0.0
    vertex -0.58395475418 1.9887672544 0.0
    vertex -0.52692527451 2.00463166247 0.0
  endloop
endfacet
facet normal 0.0 0.0 1.0
  outer loop
    vertex -0.52692527451 2.00463166247 1.0
    vertex -0.58395475418 1.9887672544 1.0
    vertex 0 0 1.0
  endloop
endfacet
facet normal 0.0 0.0 -1.0
  outer loop
    vertex 0 0 0.0
    vertex -0.592031613296 1.82208594973 0.0
    vertex -0.58395475418 1.9887672544 0.0
  endloop
endfacet
facet normal 0.0 0.0 1.0
  outer loop
    vertex -0.58395475418 1.9887672544 1.0
    vertex -0.592031613296 1.82208594973 1.0
    vertex 0 0 1.0
  endloop
endfacet
facet normal 0.0 0.0 -1.0
  outer loop
    vertex 0 0 0.0
    vertex -0.643821757489 1.80443680519 0.0
    vertex -0.592031613296 1.82208594973 0.0
  endloop
endfacet
facet normal 0.0 0.0 1.0
  outer loop
    vertex -0.592031613296 1.82208594973 1.0
    vertex -0.643821757489 1.80443680519 1.0
    vertex 0 0 1.0
  endloop
endfacet
facet normal 0.0 0.0 -1.0
  outer loop
    vertex 0 0 0.0
    vertex -0.752001425636 1.93149998782 0.0
    vertex -0.643821757489 1.80443680519 0.0
  endloop
endfacet
facet normal 0.0 0.0 1.0
  outer loop
    vertex -0.643821757489 1.80443680519 1.0
    vertex -0.752001425636 1.93149998782 1.0
    vertex 0 0 1.0
  endloop
endfacet
facet normal 0.0 0.0 -1.0
  outer loop
    vertex 0 0 0.0
    vertex -0.806850765822 1.90923811737 0.0
    vertex -0.752001425636 1.93149998782 0.0
  endloop
endfacet
facet normal 0.0 0.0 1.0
  outer loop
    vertex -0.752001425636 1.93149998782 1.0
    vertex -0.806850765822 1.90923811737 1.0
    vertex 0 0 1.0
  endloop
endfacet
facet normal 0.0 0.0 -1.0
  outer loop
    vertex 0 0 0.0
    vertex -0.79587474091 1.74272259299 0.0
    vertex -0.806850765822 1.90923811737 0.0
  endloop
endfacet
facet normal 0.0 0.0 1.0
  outer loop
    vertex -0.806850765822 1.90923811737 1.0
    vertex -0.79587474091 1.74272259299 1.0
    vertex 0 0 1.0
  endloop
endfacet
facet normal 0.0 0.0 -1.0
  outer loop
    vertex 0 0 0.0
    vertex -0.845315452367 1.71928485869 0.0
    vertex -0.79587474091 1.74272259299 0.0
  endloop
endfacet
facet normal 0.0 0.0 1.0
  outer loop
    vertex -0.79587474091 1.74272259299 1.0
    vertex -0.845315452367 1.71928485869 1.0
    vertex 0 0 1.0
  endloop
endfacet
facet normal 0.0 0.0 -1.0
  outer loop
    vertex 0 0 0.0
    vertex -0.96727408814 1.83318825698 0.0
    vertex -0.845315452367 1.71928485869 0.0
  endloop
endfacet
facet normal 0.0 0.0 1.0
  outer loop
    vertex -0.845315452367 1.71928485869 1.0
    vertex -0.96727408814 1.83318825698 1.0
    vertex 0 0 1.0
  endloop
endfacet
facet normal 0.0 0.0 -1.0
  outer loop
    vertex 0 0 0.0
    vertex -1.01922824381 1.80481914167 0.0
    vertex -0.96727408814 1.83318825698 0.0
  endloop
endfacet
facet normal 0.0 0.0 1.0
  outer loop
    vertex -0.96727408814 1.83318825698 1.0
    vertex -1.01922824381 1.80481914167 1.0
    vertex 0 0 1.0
  endloop
endfacet
facet normal 0.0 0.0 -1.0
  outer loop
    vertex 0 0 0.0
    vertex -0.989342424142 1.6406401821 0.0
    vertex -1.01922824381 1.80481914167 0.0
  endloop
endfacet
facet normal 0.0 0.0 1.0
  outer loop
    vertex -1.01922824381 1.80481914167 1.0
    vertex -0.989342424142 1.6406401821 1.0
    vertex 0 0 1.0
  endloop
endfacet
facet normal 0.0 0.0 -1.0
  outer loop
    vertex 0 0 0.0
    vertex -1.03578916758 1.61171940475 0.0
    vertex -0.989342424142 1.6406401821 0.0
  endloop
endfacet
facet normal 0.0 0.0 1.0
  outer loop
    vertex -0.989342424142 1.6406401821 1.0
    vertex -1.03578916758 1.61171940475 1.0
    vertex 0 0 1.0
  endloop
endfacet
facet normal 0.0 0.0 -1.0
  outer loop
    vertex 0 0 0.0
    vertex -1.16993685365 1.7109781137 0.0
    vertex -1.03578916758 1.61171940475 0.0
  endloop
endfacet
facet normal 0.0 0.0 1.0
  outer loop
    vertex -1.03578916758 1.61171940475 1.0
    vertex -1.16993685365 1.7109781137 1.0
    vertex 0 0 1.0
  endloop
endfacet
facet normal 0.0 0.0 -1.0
  outer loop
    vertex 0 0 0.0
    vertex -1.21831852293 1.67687158834 0.0
    vertex -1.16993685365 1.7109781137 0.0
  endloop
endfacet
facet normal 0.0 0.0 1.0
  outer loop
    vertex -1.16993685365 1.7109781137 1.0
    vertex -1.21831852293 1.67687158834 1.0
    vertex 0 0 1.0
  endloop
endfacet
facet normal 0.0 0.0 -1.0
  outer loop
    vertex 0 0 0.0
    vertex -1.16991251587 1.51716951741 0.0
    vertex -1.21831852293 1.67687158834 0.0
  endloop
endfacet
facet normal 0.0 0.0 1.0
  outer loop
    vertex -1.21831852293 1.67687158834 1.0
    vertex -1.16991251587 1.51716951741 1.0
    vertex 0 0 1.0
  endloop
endfacet
facet normal 0.0 0.0 -1.0
  outer loop
    vertex 0 0 0.0
    vertex -1.21275978696 1.48314272357 0.0
    vertex -1.16991251587 1.51716951741 0.0
  endloop
endfacet
facet normal 0.0 0.0 1.0
  outer loop
    vertex -1.16991251587 1.51716951741 1.0
    vertex -1.21275978696 1.48314272357 1.0
    vertex 0 0 1.0
  endloop
endfacet
facet normal 0.0 0.0 -1.0
  outer loop
    vertex 0 0 0.0
    vertex -1.35734770309 1.56646275412 0.0
    vertex -1.21275978696 1.48314272357 0.0
  endloop
endfacet
facet normal 0.0 0.0 1.0
  outer loop
    vertex -1.21275978696 1.48314272357 1.0
    vertex -1.35734770309 1.56646275412 1.0
    vertex 0 0 1.0
  endloop
endfacet
facet normal 0.0 0.0 -1.0
  outer loop
    vertex 0 0 0.0
    vertex -1.40152615693 1.52706344942 0.0
    vertex -1.35734770309 1.56646275412 0.0
  endloop
endfacet
facet normal 0.0 0.0 1.0
  outer loop
    vertex -1.35734770309 1.56646275412 1.0
    vertex -1.40152615693 1.52706344942 1.0
    vertex 0 0 1.0
  endloop
endfacet
facet normal 0.0 0.0 -1.0
  outer loop
    vertex 0 0 0.0
    vertex -1.33523100881 1.37392022784 0.0
    vertex -1.40152615693 1.52706344942 0.0
  endloop
endfacet
facet normal 0.0 0.0 1.0
  outer loop
    vertex -1.40152615693 1.52706344942 1.0
    vertex -1.33523100881 1.37392022784 1.0
    vertex 0 0 1.0
  endloop
endfacet
facet normal 0.0 0.0 -1.0
  outer loop
    vertex 0 0 0.0
    vertex -1.37392022784 1.33523100881 0.0
    vertex -1.33523100881 1.37392022784 0.0
  endloop
endfacet
facet normal 0.0 0.0 1.0
  outer loop
    vertex -1.33523100881 1.37392022784 1.0
    vertex -1.37392022784 1.33523100881 1.0
    vertex 0 0 1.0
  endloop
endfacet
facet normal 0.0 0.0 -1.0
  outer loop
    vertex 0 0 0.0
    vertex -1.52706344942 1.40152615693 0.0
    vertex -1.37392022784 1.33523100881 0.0
  endloop
endfacet
facet normal 0.0 0.0 1.0
  outer loop
    vertex -1.37392022784 1.33523100881 1.0
    vertex -1.52706344942 1.40152615693 1.0
    vertex 0 0 1.0
  endloop
endfacet
facet normal 0.0 0.0 -1.0
  outer loop
    vertex 0 0 0.0
    vertex -1.56646275412 1.35734770309 0.0
    vertex -1.52706344942 1.40152615693 0.0
  endloop
endfacet
facet normal 0.0 0.0 1.0
  outer loop
    vertex -1.52706344942 1.40152615693 1.0
    vertex -1.56646275412 1.35734770309 1.0
    vertex 0 0 1.0
  endloop
endfacet
facet normal 0.0 0.0 -1.0
  outer loop
    vertex 0 0 0.0
    vertex -1.48314272357 1.21275978696 0.0
    vertex -1.56646275412 1.35734770309 0.0
  endloop
endfacet
facet normal 0.0 0.0 1.0
  outer loop
    vertex -1.56646275412 1.35734770309 1.0
    vertex -1.48314272357 1.21275978696 1.0
    vertex 0 0 1.0
  endloop
endfacet
facet normal 0.0 0.0 -1.0
  outer loop
    vertex 0 0 0.0
    vertex -1.51716951741 1.16991251587 0.0
    vertex -1.48314272357 1.21275978696 0.0
  endloop
endfacet
facet normal 0.0 0.0 1.0
  outer loop
    vertex -1.48314272357 1.21275978696 1.0
    vertex -1.51716951741 1.16991251587 1.0
    vertex 0 0 1.0
  endloop
endfacet
facet normal 0.0 0.0 -1.0
  outer loop
    vertex 0 0 0.0
    vertex -1.67687158834 1.21831852293 0.0
    vertex -1.51716951741 1.16991251587 0.0
  endloop
endfacet
facet normal 0.0 0.0 1.0
  outer loop
    vertex -1.51716951741 1.16991251587 1.0
    vertex -1.67687158834 1.21831852293 1.0
    vertex 0 0 1.0
  endloop
endfacet
facet normal 0.0 0.0 -1.0
  outer loop
    vertex 0 0 0.0
    vertex -1.7109781137 1.16993685365 0.0
    vertex -1.67687158834 1.21831852293 0.0
  endloop
endfacet
facet normal 0.0 0.0 1.0
  outer loop
    vertex -1.67687158834 1.21831852293 1.0
    vertex -1.7109781137 1.16993685365 1.0
    vertex 0 0 1.0
  endloop
endfacet
facet normal 0.0 0.0 -1.0
  outer loop
    vertex 0 0 0.0
    vertex -1.61171940475 1.03578916758 0.0
    vertex -1.7109781137 1.16993685365 0.0
  endloop
endfacet
facet normal 0.0 0.0 1.0
  outer loop
    vertex -1.7109781137 1.16993685365 1.0
    vertex -1.61171940475 1.03578916758 1.0
    vertex 0 0 1.0
  endloop
endfacet
facet normal 0.0 0.0 -1.0
  outer loop
    vertex 0 0 0.0
    vertex -1.6406401821 0.989342424142 0.0
    vertex -1.61171940475 1.03578916758 0.0
  endloop
endfacet
facet normal 0.0 0.0 1.0
  outer loop
    vertex -1.61171940475 1.03578916758 1.0
    vertex -1.6406401821 0.989342424142 1.0
    vertex 0 0 1.0
  endloop
endfacet
facet normal 0.0 0.0 -1.0
  outer loop
    vertex 0 0 0.0
    vertex -1.80481914167 1.01922824381 0.0
    vertex -1.6406401821 0.989342424142 0.0
  endloop
endfacet
facet normal 0.0 0.0 1.0
  outer loop
    vertex -1.6406401821 0.989342424142 1.0
    vertex -1.80481914167 1.01922824381 1.0
    vertex 0 0 1.0
  endloop
endfacet
facet normal 0.0 0.0 -1.0
  outer loop
    vertex 0 0 0.0
    vertex -1.83318825698 0.96727408814 0.0
    vertex -1.80481914167 1.01922824381 0.0
  endloop
endfacet
facet normal 0.0 0.0 1.0
  outer loop
    vertex -1.80481914167 1.01922824381 1.0
    vertex -1.83318825698 0.96727408814 1.0
    vertex 0 0 1.0
  endloop
endfacet
facet normal 0.0 0.0 -1.0
  outer loop
    vertex 0 0 0.0
    vertex -1.71928485869 0.845315452367 0.0
    vertex -1.83318825698 0.96727408814 0.0
  endloop
endfacet
facet normal 0.0 0.0 1.0
  outer loop
    vertex -1.83318825698 0.96727408814 1.0
    vertex -1.71928485869 0.845315452367 1.0
    vertex 0 0 1.0
  endloop
endfacet
facet normal 0.0 0.0 -1.0
  outer loop
    vertex 0 0 0.0
    vertex -1.74272259299 0.79587474091 0.0
    vertex -1.71928485869 0.845315452367 0.0
  endloop
endfacet
facet normal 0.0 0.0 1.0
  outer loop
    vertex -1.71928485869 0.845315452367 1.0
    vertex -1.74272259299 0.79587474091 1.0
    vertex 0 0 1.0
  endloop
endfacet
facet normal 0.0 0.0 -1.0
  outer loop
    vertex 0 0 0.0
    vertex -1.90923811737 0.806850765821 0.0
    vertex -1.74272259299 0.79587474091 0.0
  endloop
endfacet
facet normal 0.0 0.0 1.0
  outer loop
    vertex -1.74272259299 0.79587474091 1.0
    vertex -1.90923811737 0.806850765821 1.0
    vertex 0 0 1.0
  endloop
endfacet
facet normal 0.0 0.0 -1.0
  outer loop
    vertex 0 0 0.0
    vertex -1.93149998782 0.752001425636 0.0
    vertex -1.90923811737 0.806850765821 0.0
  endloop
endfacet
facet normal 0.0 0.0 1.0
  outer loop
    vertex -1.90923811737 0.806850765821 1.0
    vertex -1.93149998782 0.752001425636 1.0
    vertex 0 0 1.0
  endloop
endfacet
facet normal 0.0 0.0 -1.0
  outer loop
    vertex 0 0 0.0
    vertex -1.80443680519 0.643821757489 0.0
    vertex -1.93149998782 0.752001425636 0.0
  endloop
endfacet
facet normal 0.0 0.0 1.0
  outer loop
    vertex -1.93149998782 0.752001425636 1.0
    vertex -1.80443680519 0.643821757489 1.0
    vertex 0 0 1.0
  endloop
endfacet
facet normal 0.0 0.0 -1.0
  outer loop
    vertex 0 0 0.0
    vertex -1.82208594973 0.592031613296 0.0
    vertex -1.80443680519 0.643821757489 0.0
  endloop
endfacet
facet normal 0.0 0.0 1.0
  outer loop
    vertex -1.80443680519 0.643821757489 1.0
    vertex -1.82208594973 0.592031613296 1.0
    vertex 0 0 1.0
  endloop
endfacet
facet normal 0.0 0.0 -1.0
  outer loop
    vertex 0 0 0.0
    vertex -1.9887672544 0.58395475418 0.0
    vertex -1.82208594973 0.592031613296 0.0
  endloop
endfacet
facet normal 0.0 0.0 1.0
  outer loop
    vertex -1.82208594973 0.592031613296 1.0
    vertex -1.9887672544 0.58395475418 1.0
    vertex 0 0 1.0
  endloop
endfacet
facet normal 0.0 0.0 -1.0
  outer loop
    vertex 0 0 0.0
    vertex -2.00463166247 0.52692527451 0.0
    vertex -1.9887672544 0.58395475418 0.0
  endloop
endfacet
facet normal 0.0 0.0 1.0
  outer loop
    vertex -1.9887672544 0.58395475418 1.0
    vertex -2.00463166247 0.52692527451 1.0
    vertex 0 0 1.0
  endloop
endfacet
facet normal 0.0 0.0 -1.0
  outer loop
    vertex 0 0 0.0
    vertex -1.8660651584 0.433934861403 0.0
    vertex -2.00463166247 0.52692527451 0.0
  endloop
endfacet
facet normal 0.0 0.0 1.0
  outer loop
    vertex -2.00463166247 0.52692527451 1.0
    vertex -1.8660651584 0.433934861403 1.0
    vertex 0 0 1.0
  endloop
endfacet
facet normal 0.0 0.0 -1.0
  outer loop
    vertex 0 0 0.0
    vertex -1.87769562959 0.380470448207 0.0
    vertex -1.8660651584 0.433934861403 0.0
  endloop
endfacet
facet normal 0.0 0.0 1.0
  outer loop
    vertex -1.8660651584 0.433934861403 1.0
    vertex -1.87769562959 0.380470448207 1.0
    vertex 0 0 1.0
  endloop
endfacet
facet normal 0.0 0.0 -1.0
  outer loop
    vertex 0 0 0.0
    vertex -2.04236976885 0.353445999275 0.0
    vertex -1.87769562959 0.380470448207 0.0
  endloop
endfacet
facet normal 0.0 0.0 1.0
  outer loop
    vertex -1.87769562959 0.380470448207 1.0
    vertex -2.04236976885 0.353445999275 1.0
    vertex 0 0 1.0
  endloop
endfacet
facet normal 0.0 0.0 -1.0
  outer loop
    vertex 0 0 0.0
    vertex -2.05162989772 0.294979846603 0.0
    vertex -2.04236976885 0.353445999275 0.0
  endloop
endfacet
facet normal 0.0 0.0 1.0
  outer loop
    vertex -2.04236976885 0.353445999275 1.0
    vertex -2.05162989772 0.294979846603 1.0
    vertex 0 0 1.0
  endloop
endfacet
facet normal 0.0 0.0 -1.0
  outer loop
    vertex 0 0 0.0
    vertex -1.90336649849 0.218390960782 0.0
    vertex -2.05162989772 0.294979846603 0.0
  endloop
endfacet
facet normal 0.0 0.0 1.0
  outer loop
    vertex -2.05162989772 0.294979846603 1.0
    vertex -1.90336649849 0.218390960782 1.0
    vertex 0 0 1.0
  endloop
endfacet
facet normal 0.0 0.0 -1.0
  outer loop
    vertex 0 0 0.0
    vertex -1.90882667535 0.163949268971 0.0
    vertex -1.90336649849 0.218390960782 0.0
  endloop
endfacet
facet normal 0.0 0.0 1.0
  outer loop
    vertex -1.90336649849 0.218390960782 1.0
    vertex -1.90882667535 0.163949268971 1.0
    vertex 0 0 1.0
  endloop
endfacet
facet normal 0.0 0.0 -1.0
  outer loop
    vertex 0 0 0.0
    vertex -2.06934686996 0.118329535243 0.0
    vertex -1.90882667535 0.163949268971 0.0
  endloop
endfacet
facet normal 0.0 0.0 1.0
  outer loop
    vertex -1.90882667535 0.163949268971 1.0
    vertex -2.06934686996 0.118329535243 1.0
    vertex 0 0 1.0
  endloop
endfacet
facet normal 0.0 0.0 -1.0
  outer loop
    vertex 0 0 0.0
    vertex -2.07188199968 0.0591889052815 0.0
    vertex -2.06934686996 0.118329535243 0.0
  endloop
endfacet
facet normal 0.0 0.0 1.0
  outer loop
    vertex -2.06934686996 0.118329535243 1.0
    vertex -2.07188199968 0.0591889052815 1.0
    vertex 0 0 1.0
  endloop
endfacet
facet normal 0.0 0.0 -1.0
  outer loop
    vertex 0 0 0.0
    vertex -1.91585454545 -4.01942714272e-15 0.0
    vertex -2.07188199968 0.0591889052815 0.0
  endloop
endfacet
facet normal 0.0 0.0 1.0
  outer loop
    vertex -2.07188199968 0.0591889052815 1.0
    vertex -1.91585454545 -4.01942714272e-15 1.0
    vertex 0 0 1.0
  endloop
endfacet
facet normal 0.0 0.0 -1.0
  outer loop
    vertex 0 0 0.0
    vertex -1.91507324623 -0.0547092397133 0.0
    vertex -1.91585454545 -4.01942714272e-15 0.0
  endloop
endfacet
facet normal 0.0 0.0 1.0
  outer loop
    vertex -1.91585454545 -4.01942714272e-15 1.0
    vertex -1.91507324623 -0.0547092397133 1.0
    vertex 0 0 1.0
  endloop
endfacet
facet normal 0.0 0.0 -1.0
  outer loop
    vertex 0 0 0.0
    vertex -2.06934686996 -0.118329535243 0.0
    vertex -1.91507324623 -0.0547092397133 0.0
  endloop
endfacet
facet normal 0.0 0.0 1.0
  outer loop
    vertex -1.91507324623 -0.0547092397133 1.0
    vertex -2.06934686996 -0.118329535243 1.0
    vertex 0 0 1.0
  endloop
endfacet
facet normal 0.0 0.0 -1.0
  outer loop
    vertex 0 0 0.0
    vertex -2.06512395124 -0.177373653938 0.0
    vertex -2.06934686996 -0.118329535243 0.0
  endloop
endfacet
facet normal 0.0 0.0 1.0
  outer loop
    vertex -2.06934686996 -0.118329535243 1.0
    vertex -2.06512395124 -0.177373653938 1.0
    vertex 0 0 1.0
  endloop
endfacet
facet normal 0.0 0.0 -1.0
  outer loop
    vertex 0 0 0.0
    vertex -1.90336649849 -0.218390960782 0.0
    vertex -2.06512395124 -0.177373653938 0.0
  endloop
endfacet
facet normal 0.0 0.0 1.0
  outer loop
    vertex -2.06512395124 -0.177373653938 1.0
    vertex -1.90336649849 -0.218390960782 1.0
    vertex 0 0 1.0
  endloop
endfacet
facet normal 0.0 0.0 -1.0
  outer loop
    vertex 0 0 0.0
    vertex -1.89635390862 -0.272654529792 0.0
    vertex -1.90336649849 -0.218390960782 0.0
  endloop
endfacet
facet normal 0.0 0.0 1.0
  outer loop
    vertex -1.90336649849 -0.218390960782 1.0
    vertex -1.89635390862 -0.272654529792 1.0
    vertex 0 0 1.0
  endloop
endfacet
facet normal 0.0 0.0 -1.0
  outer loop
    vertex 0 0 0.0
    vertex -2.04236976885 -0.353445999275 0.0
    vertex -1.89635390862 -0.272654529792 0.0
  endloop
endfacet
facet normal 0.0 0.0 1.0
  outer loop
    vertex -1.89635390862 -0.272654529792 1.0
    vertex -2.04236976885 -0.353445999275 1.0
    vertex 0 0 1.0
  endloop
endfacet
facet normal 0.0 0.0 -1.0
  outer loop
    vertex 0 0 0.0
    vertex -2.0314438539 -0.41162387632 0.0
    vertex -2.04236976885 -0.353445999275 0.0
  endloop
endfacet
facet normal 0.0 0.0 1.0
  outer loop
    vertex -2.04236976885 -0.353445999275 1.0
    vertex -2.0314438539 -0.41162387632 1.0
    vertex 0 0 1.0
  endloop
endfacet
facet normal 0.0 0.0 -1.0
  outer loop
    vertex 0 0 0.0
    vertex -1.8660651584 -0.433934861403 0.0
    vertex -2.0314438539 -0.41162387632 0.0
  endloop
endfacet
facet normal 0.0 0.0 1.0
  outer loop
    vertex -2.0314438539 -0.41162387632 1.0
    vertex -1.8660651584 -0.433934861403 1.0
    vertex 0 0 1.0
  endloop
endfacet
facet normal 0.0 0.0 -1.0
  outer loop
    vertex 0 0 0.0
    vertex -1.8529126977 -0.487045351102 0.0
    vertex -1.8660651584 -0.433934861403 0.0
  endloop
endfacet
facet normal 0.0 0.0 1.0
  outer loop
    vertex -1.8660651584 -0.433934861403 1.0
    vertex -1.8529126977 -0.487045351102 1.0
    vertex 0 0 1.0
  endloop
endfacet
facet normal 0.0 0.0 -1.0
  outer loop
    vertex 0 0 0.0
    vertex -1.9887672544 -0.58395475418 0.0
    vertex -1.8529126977 -0.487045351102 0.0
  endloop
endfacet
facet normal 0.0 0.0 1.0
  outer loop
    vertex -1.8529126977 -0.487045351102 1.0
    vertex -1.9887672544 -0.58395475418 1.0
    vertex 0 0 1.0
  endloop
endfacet
facet normal 0.0 0.0 -1.0
  outer loop
    vertex 0 0 0.0
    vertex -1.97128077923 -0.640507951977 0.0
    vertex -1.9887672544 -0.58395475418 0.0
  endloop
endfacet
facet normal 0.0 0.0 1.0
  outer loop
    vertex -1.9887672544 -0.58395475418 1.0
    vertex -1.97128077923 -0.640507951977 1.0
    vertex 0 0 1.0
  endloop
endfacet
facet normal 0.0 0.0 -1.0
  outer loop
    vertex 0 0 0.0
    vertex -1.80443680519 -0.643821757489 0.0
    vertex -1.97128077923 -0.640507951977 0.0
  endloop
endfacet
facet normal 0.0 0.0 1.0
  outer loop
    vertex -1.97128077923 -0.640507951977 1.0
    vertex -1.80443680519 -0.643821757489 1.0
    vertex 0 0 1.0
  endloop
endfacet
facet normal 0.0 0.0 -1.0
  outer loop
    vertex 0 0 0.0
    vertex -1.78531593611 -0.695086791422 0.0
    vertex -1.80443680519 -0.643821757489 0.0
  endloop
endfacet
facet normal 0.0 0.0 1.0
  outer loop
    vertex -1.80443680519 -0.643821757489 1.0
    vertex -1.78531593611 -0.695086791422 1.0
    vertex 0 0 1.0
  endloop
endfacet
facet normal 0.0 0.0 -1.0
  outer loop
    vertex 0 0 0.0
    vertex -1.90923811737 -0.806850765822 0.0
    vertex -1.78531593611 -0.695086791422 0.0
  endloop
endfacet
facet normal 0.0 0.0 1.0
  outer loop
    vertex -1.78531593611 -0.695086791422 1.0
    vertex -1.90923811737 -0.806850765822 1.0
    vertex 0 0 1.0
  endloop
endfacet
facet normal 0.0 0.0 -1.0
  outer loop
    vertex 0 0 0.0
    vertex -1.88541904492 -0.861042026949 0.0
    vertex -1.90923811737 -0.806850765822 0.0
  endloop
endfacet
facet normal 0.0 0.0 1.0
  outer loop
    vertex -1.90923811737 -0.806850765822 1.0
    vertex -1.88541904492 -0.861042026949 1.0
    vertex 0 0 1.0
  endloop
endfacet
facet normal 0.0 0.0 -1.0
  outer loop
    vertex 0 0 0.0
    vertex -1.71928485869 -0.845315452367 0.0
    vertex -1.88541904492 -0.861042026949 0.0
  endloop
endfacet
facet normal 0.0 0.0 1.0
  outer loop
    vertex -1.88541904492 -0.861042026949 1.0
    vertex -1.71928485869 -0.845315452367 1.0
    vertex 0 0 1.0
  endloop
endfacet
facet normal 0.0 0.0 -1.0
  outer loop
    vertex 0 0 0.0
    vertex -1.694444851 -0.894066712417 0.0
    vertex -1.71928485869 -0.845315452367 0.0
  endloop
endfacet
facet normal 0.0 0.0 1.0
  outer loop
    vertex -1.71928485869 -0.845315452367 1.0
    vertex -1.694444851 -0.894066712417 1.0
    vertex 0 0 1.0
  endloop
endfacet
facet normal 0.0 0.0 -1.0
  outer loop
    vertex 0 0 0.0
    vertex -1.80481914167 -1.01922824381 0.0
    vertex -1.694444851 -0.894066712417 0.0
  endloop
endfacet
facet normal 0.0 0.0 1.0
  outer loop
    vertex -1.694444851 -0.894066712417 1.0
    vertex -1.80481914167 -1.01922824381 1.0
    vertex 0 0 1.0
  endloop
endfacet
facet normal 0.0 0.0 -1.0
  outer loop
    vertex 0 0 0.0
    vertex -1.77497798998 -1.07035110231 0.0
    vertex -1.80481914167 -1.01922824381 0.0
  endloop
endfacet
facet normal 0.0 0.0 1.0
  outer loop
    vertex -1.80481914167 -1.01922824381 1.0
    vertex -1.77497798998 -1.07035110231 1.0
    vertex 0 0 1.0
  endloop
endfacet
facet normal 0.0 0.0 -1.0
  outer loop
    vertex 0 0 0.0
    vertex -1.61171940475 -1.03578916758 0.0
    vertex -1.77497798998 -1.07035110231 0.0
  endloop
endfacet
facet normal 0.0 0.0 1.0
  outer loop
    vertex -1.77497798998 -1.07035110231 1.0
    vertex -1.61171940475 -1.03578916758 1.0
    vertex 0 0 1.0
  endloop
endfacet
facet normal 0.0 0.0 -1.0
  outer loop
    vertex 0 0 0.0
    vertex -1.58148408594 -1.08139110652 0.0
    vertex -1.61171940475 -1.03578916758 0.0
  endloop
endfacet
facet normal 0.0 0.0 1.0
  outer loop
    vertex -1.61171940475 -1.03578916758 1.0
    vertex -1.58148408594 -1.08139110652 1.0
    vertex 0 0 1.0
  endloop
endfacet
facet normal 0.0 0.0 -1.0
  outer loop
    vertex 0 0 0.0
    vertex -1.67687158834 -1.21831852293 0.0
    vertex -1.58148408594 -1.08139110652 0.0
  endloop
endfacet
facet normal 0.0 0.0 1.0
  outer loop
    vertex -1.58148408594 -1.08139110652 1.0
    vertex -1.67687158834 -1.21831852293 1.0
    vertex 0 0 1.0
  endloop
endfacet
facet normal 0.0 0.0 -1.0
  outer loop
    vertex 0 0 0.0
    vertex -1.64139738246 -1.26570651415 0.0
    vertex -1.67687158834 -1.21831852293 0.0
  endloop
endfacet
facet normal 0.0 0.0 1.0
  outer loop
    vertex -1.67687158834 -1.21831852293 1.0
    vertex -1.64139738246 -1.26570651415 1.0
    vertex 0 0 1.0
  endloop
endfacet
facet normal 0.0 0.0 -1.0
  outer loop
    vertex 0 0 0.0
    vertex -1.48314272357 -1.21275978696 0.0
    vertex -1.64139738246 -1.26570651415 0.0
  endloop
endfacet
facet normal 0.0 0.0 1.0
  outer loop
    vertex -1.64139738246 -1.26570651415 1.0
    vertex -1.48314272357 -1.21275978696 1.0
    vertex 0 0 1.0
  endloop
endfacet
facet normal 0.0 0.0 -1.0
  outer loop
    vertex 0 0 0.0
    vertex -1.44790625725 -1.25461791377 0.0
    vertex -1.48314272357 -1.21275978696 0.0
  endloop
endfacet
facet normal 0.0 0.0 1.0
  outer loop
    vertex -1.48314272357 -1.21275978696 1.0
    vertex -1.44790625725 -1.25461791377 1.0
    vertex 0 0 1.0
  endloop
endfacet
facet normal 0.0 0.0 -1.0
  outer loop
    vertex 0 0 0.0
    vertex -1.52706344942 -1.40152615693 0.0
    vertex -1.44790625725 -1.25461791377 0.0
  endloop
endfacet
facet normal 0.0 0.0 1.0
  outer loop
    vertex -1.44790625725 -1.25461791377 1.0
    vertex -1.52706344942 -1.40152615693 1.0
    vertex 0 0 1.0
  endloop
endfacet
facet normal 0.0 0.0 -1.0
  outer loop
    vertex 0 0 0.0
    vertex -1.48641864986 -1.44456150594 0.0
    vertex -1.52706344942 -1.40152615693 0.0
  endloop
endfacet
facet normal 0.0 0.0 1.0
  outer loop
    vertex -1.52706344942 -1.40152615693 1.0
    vertex -1.48641864986 -1.44456150594 1.0
    vertex 0 0 1.0
  endloop
endfacet
facet normal 0.0 0.0 -1.0
  outer loop
    vertex 0 0 0.0
    vertex -1.33523100881 -1.37392022784 0.0
    vertex -1.48641864986 -1.44456150594 0.0
  endloop
endfacet
facet normal 0.0 0.0 1.0
  outer loop
    vertex -1.48641864986 -1.44456150594 1.0
    vertex -1.33523100881 -1.37392022784 1.0
    vertex 0 0 1.0
  endloop
endfacet
facet normal 0.0 0.0 -1.0
  outer loop
    vertex 0 0 0.0
    vertex -1.29545275621 -1.41148885782 0.0
    vertex -1.33523100881 -1.37392022784 0.0
  endloop
endfacet
facet normal 0.0 0.0 1.0
  outer loop
    vertex -1.33523100881 -1.37392022784 1.0
    vertex -1.29545275621 -1.41148885782 1.0
    vertex 0 0 1.0
  endloop
endfacet
facet normal 0.0 0.0 -1.0
  outer loop
    vertex 0 0 0.0
    vertex -1.35734770309 -1.56646275412 0.0
    vertex -1.29545275621 -1.41148885782 0.0
  endloop
endfacet
facet normal 0.0 0.0 1.0
  outer loop
    vertex -1.29545275621 -1.41148885782 1.0
    vertex -1.35734770309 -1.56646275412 1.0
    vertex 0 0 1.0
  endloop
endfacet
facet normal 0.0 0.0 -1.0
  outer loop
    vertex 0 0 0.0
    vertex -1.31206217699 -1.60458442932 0.0
    vertex -1.35734770309 -1.56646275412 0.0
  endloop
endfacet
facet normal 0.0 0.0 1.0
  outer loop
    vertex -1.35734770309 -1.56646275412 1.0
    vertex -1.31206217699 -1.60458442932 1.0
    vertex 0 0 1.0
  endloop
endfacet
facet normal 0.0 0.0 -1.0
  outer loop
    vertex 0 0 0.0
    vertex -1.16991251587 -1.51716951741 0.0
    vertex -1.31206217699 -1.60458442932 0.0
  endloop
endfacet
facet normal 0.0 0.0 1.0
  outer loop
    vertex -1.31206217699 -1.60458442932 1.0
    vertex -1.16991251587 -1.51716951741 1.0
    vertex 0 0 1.0
  endloop
endfacet
facet normal 0.0 0.0 -1.0
  outer loop
    vertex 0 0 0.0
    vertex -1.12611104736 -1.54995888602 0.0
    vertex -1.16991251587 -1.51716951741 0.0
  endloop
endfacet
facet normal 0.0 0.0 1.0
  outer loop
    vertex -1.16991251587 -1.51716951741 1.0
    vertex -1.12611104736 -1.54995888602 1.0
    vertex 0 0 1.0
  endloop
endfacet
facet normal 0.0 0.0 -1.0
  outer loop
    vertex 0 0 0.0
    vertex -1.16993685365 -1.7109781137 0.0
    vertex -1.12611104736 -1.54995888602 0.0
  endloop
endfacet
facet normal 0.0 0.0 1.0
  outer loop
    vertex -1.12611104736 -1.54995888602 1.0
    vertex -1.16993685365 -1.7109781137 1.0
    vertex 0 0 1.0
  endloop
endfacet
facet normal 0.0 0.0 -1.0
  outer loop
    vertex 0 0 0.0
    vertex -1.12060096709 -1.74368914078 0.0
    vertex -1.16993685365 -1.7109781137 0.0
  endloop
endfacet
facet normal 0.0 0.0 1.0
  outer loop
    vertex -1.16993685365 -1.7109781137 1.0
    vertex -1.12060096709 -1.74368914078 1.0
    vertex 0 0 1.0
  endloop
endfacet
facet normal 0.0 0.0 -1.0
  outer loop
    vertex 0 0 0.0
    vertex -0.989342424142 -1.6406401821 0.0
    vertex -1.12060096709 -1.74368914078 0.0
  endloop
endfacet
facet normal 0.0 0.0 1.0
  outer loop
    vertex -1.12060096709 -1.74368914078 1.0
    vertex -0.989342424142 -1.6406401821 1.0
    vertex 0 0 1.0
  endloop
endfacet
facet normal 0.0 0.0 -1.0
  outer loop
    vertex 0 0 0.0
    vertex -0.942088758832 -1.66822282979 0.0
    vertex -0.989342424142 -1.6406401821 0.0
  endloop
endfacet
facet normal 0.0 0.0 1.0
  outer loop
    vertex -0.989342424142 -1.6406401821 1.0
    vertex -0.942088758832 -1.66822282979 1.0
    vertex 0 0 1.0
  endloop
endfacet
facet normal 0.0 0.0 -1.0
  outer loop
    vertex 0 0 0.0
    vertex -0.96727408814 -1.83318825698 0.0
    vertex -0.942088758832 -1.66822282979 0.0
  endloop
endfacet
facet normal 0.0 0.0 1.0
  outer loop
    vertex -0.942088758832 -1.66822282979 1.0
    vertex -0.96727408814 -1.83318825698 1.0
    vertex 0 0 1.0
  endloop
endfacet
facet normal 0.0 0.0 -1.0
  outer loop
    vertex 0 0 0.0
    vertex -0.91453100985 -1.86006219765 0.0
    vertex -0.96727408814 -1.83318825698 0.0
  endloop
endfacet
facet normal 0.0 0.0 1.0
  outer loop
    vertex -0.96727408814 -1.83318825698 1.0
    vertex -0.91453100985 -1.86006219765 1.0
    vertex 0 0 1.0
  endloop
endfacet
facet normal 0.0 0.0 -1.0
  outer loop
    vertex 0 0 0.0
    vertex -0.79587474091 -1.74272259299 0.0
    vertex -0.91453100985 -1.86006219765 0.0
  endloop
endfacet
facet normal 0.0 0.0 1.0
  outer loop
    vertex -0.91453100985 -1.86006219765 1.0
    vertex -0.79587474091 -1.74272259299 1.0
    vertex 0 0 1.0
  endloop
endfacet
facet normal 0.0 0.0 -1.0
  outer loop
    vertex 0 0 0.0
    vertex -0.745784902598 -1.76473893775 0.0
    vertex -0.79587474091 -1.74272259299 0.0
  endloop
endfacet
facet normal 0.0 0.0 1.0
  outer loop
    vertex -0.79587474091 -1.74272259299 1.0
    vertex -0.745784902598 -1.76473893775 1.0
    vertex 0 0 1.0
  endloop
endfacet
facet normal 0.0 0.0 -1.0
  outer loop
    vertex 0 0 0.0
    vertex -0.752001425636 -1.93149998782 0.0
    vertex -0.745784902598 -1.76473893775 0.0
  endloop
endfacet
facet normal 0.0 0.0 1.0
  outer loop
    vertex -0.745784902598 -1.76473893775 1.0
    vertex -0.752001425636 -1.93149998782 1.0
    vertex 0 0 1.0
  endloop
endfacet
facet normal 0.0 0.0 -1.0
  outer loop
    vertex 0 0 0.0
    vertex -0.696538742301 -1.95218649918 0.0
    vertex -0.752001425636 -1.93149998782 0.0
  endloop
endfacet
facet normal 0.0 0.0 1.0
  outer loop
    vertex -0.752001425636 -1.93149998782 1.0
    vertex -0.696538742301 -1.95218649918 1.0
    vertex 0 0 1.0
  endloop
endfacet
facet normal 0.0 0.0 -1.0
  outer loop
    vertex 0 0 0.0
    vertex -0.592031613296 -1.82208594973 0.0
    vertex -0.696538742301 -1.95218649918 0.0
  endloop
endfacet
facet normal 0.0 0.0 1.0
  outer loop
    vertex -0.696538742301 -1.95218649918 1.0
    vertex -0.592031613296 -1.82208594973 1.0
    vertex 0 0 1.0
  endloop
endfacet
facet normal 0.0 0.0 -1.0
  outer loop
    vertex 0 0 0.0
    vertex -0.539758599627 -1.83824897483 0.0
    vertex -0.592031613296 -1.82208594973 0.0
  endloop
endfacet
facet normal 0.0 0.0 1.0
  outer loop
    vertex -0.592031613296 -1.82208594973 1.0
    vertex -0.539758599627 -1.83824897483 1.0
    vertex 0 0 1.0
  endloop
endfacet
facet normal 0.0 0.0 -1.0
  outer loop
    vertex 0 0 0.0
    vertex -0.52692527451 -2.00463166247 0.0
    vertex -0.539758599627 -1.83824897483 0.0
  endloop
endfacet
facet normal 0.0 0.0 1.0
  outer loop
    vertex -0.539758599627 -1.83824897483 1.0
    vertex -0.52692527451 -2.00463166247 1.0
    vertex 0 0 1.0
  endloop
endfacet
facet normal 0.0 0.0 -1.0
  outer loop
    vertex 0 0 0.0
    vertex -0.469466027028 -2.01886106421 0.0
    vertex -0.52692527451 -2.00463166247 0.0
  endloop
endfacet
facet normal 0.0 0.0 1.0
  outer loop
    vertex -0.52692527451 -2.00463166247 1.0
    vertex -0.469466027028 -2.01886106421 1.0
    vertex 0 0 1.0
  endloop
endfacet
facet normal 0.0 0.0 -1.0
  outer loop
    vertex 0 0 0.0
    vertex -0.380470448207 -1.87769562959 0.0
    vertex -0.469466027028 -2.01886106421 0.0
  endloop
endfacet
facet normal 0.0 0.0 1.0
  outer loop
    vertex -0.469466027028 -2.01886106421 1.0
    vertex -0.380470448207 -1.87769562959 1.0
    vertex 0 0 1.0
  endloop
endfacet
facet normal 0.0 0.0 -1.0
  outer loop
    vertex 0 0 0.0
    vertex -0.326695717856 -1.88779462529 0.0
    vertex -0.380470448207 -1.87769562959 0.0
  endloop
endfacet
facet normal 0.0 0.0 1.0
  outer loop
    vertex -0.380470448207 -1.87769562959 1.0
    vertex -0.326695717856 -1.88779462529 1.0
    vertex 0 0 1.0
  endloop
endfacet
facet normal 0.0 0.0 -1.0
  outer loop
    vertex 0 0 0.0
    vertex -0.294979846603 -2.05162989772 0.0
    vertex -0.326695717856 -1.88779462529 0.0
  endloop
endfacet
facet normal 0.0 0.0 1.0
  outer loop
    vertex -0.326695717856 -1.88779462529 1.0
    vertex -0.294979846603 -2.05162989772 1.0
    vertex 0 0 1.0
  endloop
endfacet
facet normal 0.0 0.0 -1.0
  outer loop
    vertex 0 0 0.0
    vertex -0.236273104137 -2.05921668781 0.0
    vertex -0.294979846603 -2.05162989772 0.0
  endloop
endfacet
facet normal 0.0 0.0 1.0
  outer loop
    vertex -0.294979846603 -2.05162989772 1.0
    vertex -0.236273104137 -2.05921668781 1.0
    vertex 0 0 1.0
  endloop
endfacet
facet normal 0.0 0.0 -1.0
  outer loop
    vertex 0 0 0.0
    vertex -0.163949268971 -1.90882667535 0.0
    vertex -0.236273104137 -2.05921668781 0.0
  endloop
endfacet
facet normal 0.0 0.0 1.0
  outer loop
    vertex -0.236273104137 -2.05921668781 1.0
    vertex -0.163949268971 -1.90882667535 1.0
    vertex 0 0 1.0
  endloop
endfacet
facet normal 0.0 0.0 -1.0
  outer loop
    vertex 0 0 0.0
    vertex -0.109373857786 -1.9127299858 0.0
    vertex -0.163949268971 -1.90882667535 0.0
  endloop
endfacet
facet normal 0.0 0.0 1.0
  outer loop
    vertex -0.163949268971 -1.90882667535 1.0
    vertex -0.109373857786 -1.9127299858 1.0
    vertex 0 0 1.0
  endloop
endfacet
facet normal 0.0 0.0 -1.0
  outer loop
    vertex 0 0 0.0
    vertex -0.0591889052815 -2.07188199968 0.0
    vertex -0.109373857786 -1.9127299858 0.0
  endloop
endfacet
facet normal 0.0 0.0 1.0
  outer loop
    vertex -0.109373857786 -1.9127299858 1.0
    vertex -0.0591889052815 -2.07188199968 1.0
    vertex 0 0 1.0
  endloop
endfacet
facet normal 0.0 0.0 -1.0
  outer loop
    vertex 0 0 0.0
    vertex 5.14210107767e-15 -2.07272727273 0.0
    vertex -0.0591889052815 -2.07188199968 0.0
  endloop
endfacet
facet normal 0.0 0.0 1.0
  outer loop
    vertex -0.0591889052815 -2.07188199968 1.0
    vertex 5.14210107767e-15 -2.07272727273 1.0
    vertex 0 0 1.0
  endloop
endfacet
facet normal 0.0 0.0 -1.0
  outer loop
    vertex 0 0 0.0
    vertex 0.0547092397133 -1.91507324623 0.0
    vertex 5.14210107767e-15 -2.07272727273 0.0
  endloop
endfacet
facet normal 0.0 0.0 1.0
  outer loop
    vertex 5.14210107767e-15 -2.07272727273 1.0
    vertex 0.0547092397133 -1.91507324623 1.0
    vertex 0 0 1.0
  endloop
endfacet
facet normal 0.0 0.0 -1.0
  outer loop
    vertex 0 0 0.0
    vertex 0.109373857786 -1.9127299858 0.0
    vertex 0.0547092397133 -1.91507324623 0.0
  endloop
endfacet
facet normal 0.0 0.0 1.0
  outer loop
    vertex 0.0547092397133 -1.91507324623 1.0
    vertex 0.109373857786 -1.9127299858 1.0
    vertex 0 0 1.0
  endloop
endfacet
facet normal 0.0 0.0 -1.0
  outer loop
    vertex 0 0 0.0
    vertex 0.177373653938 -2.06512395124 0.0
    vertex 0.109373857786 -1.9127299858 0.0
  endloop
endfacet
facet normal 0.0 0.0 1.0
  outer loop
    vertex 0.109373857786 -1.9127299858 1.0
    vertex 0.177373653938 -2.06512395124 1.0
    vertex 0 0 1.0
  endloop
endfacet
facet normal 0.0 0.0 -1.0
  outer loop
    vertex 0 0 0.0
    vertex 0.236273104137 -2.05921668781 0.0
    vertex 0.177373653938 -2.06512395124 0.0
  endloop
endfacet
facet normal 0.0 0.0 1.0
  outer loop
    vertex 0.177373653938 -2.06512395124 1.0
    vertex 0.236273104137 -2.05921668781 1.0
    vertex 0 0 1.0
  endloop
endfacet
facet normal 0.0 0.0 -1.0
  outer loop
    vertex 0 0 0.0
    vertex 0.272654529792 -1.89635390862 0.0
    vertex 0.236273104137 -2.05921668781 0.0
  endloop
endfacet
facet normal 0.0 0.0 1.0
  outer loop
    vertex 0.236273104137 -2.05921668781 1.0
    vertex 0.272654529792 -1.89635390862 1.0
    vertex 0 0 1.0
  endloop
endfacet
facet normal 0.0 0.0 -1.0
  outer loop
    vertex 0 0 0.0
    vertex 0.326695717856 -1.88779462529 0.0
    vertex 0.272654529792 -1.89635390862 0.0
  endloop
endfacet
facet normal 0.0 0.0 1.0
  outer loop
    vertex 0.272654529792 -1.89635390862 1.0
    vertex 0.326695717856 -1.88779462529 1.0
    vertex 0 0 1.0
  endloop
endfacet
facet normal 0.0 0.0 -1.0
  outer loop
    vertex 0 0 0.0
    vertex 0.41162387632 -2.0314438539 0.0
    vertex 0.326695717856 -1.88779462529 0.0
  endloop
endfacet
facet normal 0.0 0.0 1.0
  outer loop
    vertex 0.326695717856 -1.88779462529 1.0
    vertex 0.41162387632 -2.0314438539 1.0
    vertex 0 0 1.0
  endloop
endfacet
facet normal 0.0 0.0 -1.0
  outer loop
    vertex 0 0 0.0
    vertex 0.469466027028 -2.01886106421 0.0
    vertex 0.41162387632 -2.0314438539 0.0
  endloop
endfacet
facet normal 0.0 0.0 1.0
  outer loop
    vertex 0.41162387632 -2.0314438539 1.0
    vertex 0.469466027028 -2.01886106421 1.0
    vertex 0 0 1.0
  endloop
endfacet
facet normal 0.0 0.0 -1.0
  outer loop
    vertex 0 0 0.0
    vertex 0.487045351102 -1.8529126977 0.0
    vertex 0.469466027028 -2.01886106421 0.0
  endloop
endfacet
facet normal 0.0 0.0 1.0
  outer loop
    vertex 0.469466027028 -2.01886106421 1.0
    vertex 0.487045351102 -1.8529126977 1.0
    vertex 0 0 1.0
  endloop
endfacet
facet normal 0.0 0.0 -1.0
  outer loop
    vertex 0 0 0.0
    vertex 0.539758599627 -1.83824897483 0.0
    vertex 0.487045351102 -1.8529126977 0.0
  endloop
endfacet
facet normal 0.0 0.0 1.0
  outer loop
    vertex 0.487045351102 -1.8529126977 1.0
    vertex 0.539758599627 -1.83824897483 1.0
    vertex 0 0 1.0
  endloop
endfacet
facet normal 0.0 0.0 -1.0
  outer loop
    vertex 0 0 0.0
    vertex 0.640507951977 -1.97128077923 0.0
    vertex 0.539758599627 -1.83824897483 0.0
  endloop
endfacet
facet normal 0.0 0.0 1.0
  outer loop
    vertex 0.539758599627 -1.83824897483 1.0
    vertex 0.640507951977 -1.97128077923 1.0
    vertex 0 0 1.0
  endloop
endfacet
facet normal 0.0 0.0 -1.0
  outer loop
    vertex 0 0 0.0
    vertex 0.696538742301 -1.95218649918 0.0
    vertex 0.640507951977 -1.97128077923 0.0
  endloop
endfacet
facet normal 0.0 0.0 1.0
  outer loop
    vertex 0.640507951977 -1.97128077923 1.0
    vertex 0.696538742301 -1.95218649918 1.0
    vertex 0 0 1.0
  endloop
endfacet
facet normal 0.0 0.0 -1.0
  outer loop
    vertex 0 0 0.0
    vertex 0.695086791422 -1.78531593611 0.0
    vertex 0.696538742301 -1.95218649918 0.0
  endloop
endfacet
facet normal 0.0 0.0 1.0
  outer loop
    vertex 0.696538742301 -1.95218649918 1.0
    vertex 0.695086791422 -1.78531593611 1.0
    vertex 0 0 1.0
  endloop
endfacet
facet normal 0.0 0.0 -1.0
  outer loop
    vertex 0 0 0.0
    vertex 0.745784902598 -1.76473893775 0.0
    vertex 0.695086791422 -1.78531593611 0.0
  endloop
endfacet
facet normal 0.0 0.0 1.0
  outer loop
    vertex 0.695086791422 -1.78531593611 1.0
    vertex 0.745784902598 -1.76473893775 1.0
    vertex 0 0 1.0
  endloop
endfacet
facet normal 0.0 0.0 -1.0
  outer loop
    vertex 0 0 0.0
    vertex 0.861042026949 -1.88541904492 0.0
    vertex 0.745784902598 -1.76473893775 0.0
  endloop
endfacet
facet normal 0.0 0.0 1.0
  outer loop
    vertex 0.745784902598 -1.76473893775 1.0
    vertex 0.861042026949 -1.88541904492 1.0
    vertex 0 0 1.0
  endloop
endfacet
facet normal 0.0 0.0 -1.0
  outer loop
    vertex 0 0 0.0
    vertex 0.91453100985 -1.86006219765 0.0
    vertex 0.861042026949 -1.88541904492 0.0
  endloop
endfacet
facet normal 0.0 0.0 1.0
  outer loop
    vertex 0.861042026949 -1.88541904492 1.0
    vertex 0.91453100985 -1.86006219765 1.0
    vertex 0 0 1.0
  endloop
endfacet
facet normal 0.0 0.0 -1.0
  outer loop
    vertex 0 0 0.0
    vertex 0.894066712417 -1.694444851 0.0
    vertex 0.91453100985 -1.86006219765 0.0
  endloop
endfacet
facet normal 0.0 0.0 1.0
  outer loop
    vertex 0.91453100985 -1.86006219765 1.0
    vertex 0.894066712417 -1.694444851 1.0
    vertex 0 0 1.0
  endloop
endfacet
facet normal 0.0 0.0 -1.0
  outer loop
    vertex 0 0 0.0
    vertex 0.942088758832 -1.66822282979 0.0
    vertex 0.894066712417 -1.694444851 0.0
  endloop
endfacet
facet normal 0.0 0.0 1.0
  outer loop
    vertex 0.894066712417 -1.694444851 1.0
    vertex 0.942088758832 -1.66822282979 1.0
    vertex 0 0 1.0
  endloop
endfacet
facet normal 0.0 0.0 -1.0
  outer loop
    vertex 0 0 0.0
    vertex 1.07035110231 -1.77497798998 0.0
    vertex 0.942088758832 -1.66822282979 0.0
  endloop
endfacet
facet normal 0.0 0.0 1.0
  outer loop
    vertex 0.942088758832 -1.66822282979 1.0
    vertex 1.07035110231 -1.77497798998 1.0
    vertex 0 0 1.0
  endloop
endfacet
facet normal 0.0 0.0 -1.0
  outer loop
    vertex 0 0 0.0
    vertex 1.12060096709 -1.74368914078 0.0
    vertex 1.07035110231 -1.77497798998 0.0
  endloop
endfacet
facet normal 0.0 0.0 1.0
  outer loop
    vertex 1.07035110231 -1.77497798998 1.0
    vertex 1.12060096709 -1.74368914078 1.0
    vertex 0 0 1.0
  endloop
endfacet
facet normal 0.0 0.0 -1.0
  outer loop
    vertex 0 0 0.0
    vertex 1.08139110652 -1.58148408594 0.0
    vertex 1.12060096709 -1.74368914078 0.0
  endloop
endfacet
facet normal 0.0 0.0 1.0
  outer loop
    vertex 1.12060096709 -1.74368914078 1.0
    vertex 1.08139110652 -1.58148408594 1.0
    vertex 0 0 1.0
  endloop
endfacet
facet normal 0.0 0.0 -1.0
  outer loop
    vertex 0 0 0.0
    vertex 1.12611104736 -1.54995888602 0.0
    vertex 1.08139110652 -1.58148408594 0.0
  endloop
endfacet
facet normal 0.0 0.0 1.0
  outer loop
    vertex 1.08139110652 -1.58148408594 1.0
    vertex 1.12611104736 -1.54995888602 1.0
    vertex 0 0 1.0
  endloop
endfacet
facet normal 0.0 0.0 -1.0
  outer loop
    vertex 0 0 0.0
    vertex 1.26570651415 -1.64139738246 0.0
    vertex 1.12611104736 -1.54995888602 0.0
  endloop
endfacet
facet normal 0.0 0.0 1.0
  outer loop
    vertex 1.12611104736 -1.54995888602 1.0
    vertex 1.26570651415 -1.64139738246 1.0
    vertex 0 0 1.0
  endloop
endfacet
facet normal 0.0 0.0 -1.0
  outer loop
    vertex 0 0 0.0
    vertex 1.31206217699 -1.60458442932 0.0
    vertex 1.26570651415 -1.64139738246 0.0
  endloop
endfacet
facet normal 0.0 0.0 1.0
  outer loop
    vertex 1.26570651415 -1.64139738246 1.0
    vertex 1.31206217699 -1.60458442932 1.0
    vertex 0 0 1.0
  endloop
endfacet
facet normal 0.0 0.0 -1.0
  outer loop
    vertex 0 0 0.0
    vertex 1.25461791377 -1.44790625725 0.0
    vertex 1.31206217699 -1.60458442932 0.0
  endloop
endfacet
facet normal 0.0 0.0 1.0
  outer loop
    vertex 1.31206217699 -1.60458442932 1.0
    vertex 1.25461791377 -1.44790625725 1.0
    vertex 0 0 1.0
  endloop
endfacet
facet normal 0.0 0.0 -1.0
  outer loop
    vertex 0 0 0.0
    vertex 1.29545275621 -1.41148885782 0.0
    vertex 1.25461791377 -1.44790625725 0.0
  endloop
endfacet
facet normal 0.0 0.0 1.0
  outer loop
    vertex 1.25461791377 -1.44790625725 1.0
    vertex 1.29545275621 -1.41148885782 1.0
    vertex 0 0 1.0
  endloop
endfacet
facet normal 0.0 0.0 -1.0
  outer loop
    vertex 0 0 0.0
    vertex 1.44456150594 -1.48641864986 0.0
    vertex 1.29545275621 -1.41148885782 0.0
  endloop
endfacet
facet normal 0.0 0.0 1.0
  outer loop
    vertex 1.29545275621 -1.41148885782 1.0
    vertex 1.44456150594 -1.48641864986 1.0
    vertex 0 0 1.0
  endloop
endfacet
facet normal 0.0 0.0 -1.0
  outer loop
    vertex 0 0 0.0
    vertex 1.48641864986 -1.44456150594 0.0
    vertex 1.44456150594 -1.48641864986 0.0
  endloop
endfacet
facet normal 0.0 0.0 1.0
  outer loop
    vertex 1.44456150594 -1.48641864986 1.0
    vertex 1.48641864986 -1.44456150594 1.0
    vertex 0 0 1.0
  endloop
endfacet
facet normal 0.0 0.0 -1.0
  outer loop
    vertex 0 0 0.0
    vertex 1.41148885782 -1.29545275621 0.0
    vertex 1.48641864986 -1.44456150594 0.0
  endloop
endfacet
facet normal 0.0 0.0 1.0
  outer loop
    vertex 1.48641864986 -1.44456150594 1.0
    vertex 1.41148885782 -1.29545275621 1.0
    vertex 0 0 1.0
  endloop
endfacet
facet normal 0.0 0.0 -1.0
  outer loop
    vertex 0 0 0.0
    vertex 1.44790625725 -1.25461791377 0.0
    vertex 1.41148885782 -1.29545275621 0.0
  endloop
endfacet
facet normal 0.0 0.0 1.0
  outer loop
    vertex 1.41148885782 -1.29545275621 1.0
    vertex 1.44790625725 -1.25461791377 1.0
    vertex 0 0 1.0
  endloop
endfacet
facet normal 0.0 0.0 -1.0
  outer loop
    vertex 0 0 0.0
    vertex 1.60458442932 -1.31206217699 0.0
    vertex 1.44790625725 -1.25461791377 0.0
  endloop
endfacet
facet normal 0.0 0.0 1.0
  outer loop
    vertex 1.44790625725 -1.25461791377 1.0
    vertex 1.60458442932 -1.31206217699 1.0
    vertex 0 0 1.0
  endloop
endfacet
facet normal 0.0 0.0 -1.0
  outer loop
    vertex 0 0 0.0
    vertex 1.64139738246 -1.26570651415 0.0
    vertex 1.60458442932 -1.31206217699 0.0
  endloop
endfacet
facet normal 0.0 0.0 1.0
  outer loop
    vertex 1.60458442932 -1.31206217699 1.0
    vertex 1.64139738246 -1.26570651415 1.0
    vertex 0 0 1.0
  endloop
endfacet
facet normal 0.0 0.0 -1.0
  outer loop
    vertex 0 0 0.0
    vertex 1.54995888602 -1.12611104736 0.0
    vertex 1.64139738246 -1.26570651415 0.0
  endloop
endfacet
facet normal 0.0 0.0 1.0
  outer loop
    vertex 1.64139738246 -1.26570651415 1.0
    vertex 1.54995888602 -1.12611104736 1.0
    vertex 0 0 1.0
  endloop
endfacet
facet normal 0.0 0.0 -1.0
  outer loop
    vertex 0 0 0.0
    vertex 1.58148408594 -1.08139110652 0.0
    vertex 1.54995888602 -1.12611104736 0.0
  endloop
endfacet
facet normal 0.0 0.0 1.0
  outer loop
    vertex 1.54995888602 -1.12611104736 1.0
    vertex 1.58148408594 -1.08139110652 1.0
    vertex 0 0 1.0
  endloop
endfacet
facet normal 0.0 0.0 -1.0
  outer loop
    vertex 0 0 0.0
    vertex 1.74368914078 -1.12060096709 0.0
    vertex 1.58148408594 -1.08139110652 0.0
  endloop
endfacet
facet normal 0.0 0.0 1.0
  outer loop
    vertex 1.58148408594 -1.08139110652 1.0
    vertex 1.74368914078 -1.12060096709 1.0
    vertex 0 0 1.0
  endloop
endfacet
facet normal 0.0 0.0 -1.0
  outer loop
    vertex 0 0 0.0
    vertex 1.77497798998 -1.07035110231 0.0
    vertex 1.74368914078 -1.12060096709 0.0
  endloop
endfacet
facet normal 0.0 0.0 1.0
  outer loop
    vertex 1.74368914078 -1.12060096709 1.0
    vertex 1.77497798998 -1.07035110231 1.0
    vertex 0 0 1.0
  endloop
endfacet
facet normal 0.0 0.0 -1.0
  outer loop
    vertex 0 0 0.0
    vertex 1.66822282979 -0.942088758832 0.0
    vertex 1.77497798998 -1.07035110231 0.0
  endloop
endfacet
facet normal 0.0 0.0 1.0
  outer loop
    vertex 1.77497798998 -1.07035110231 1.0
    vertex 1.66822282979 -0.942088758832 1.0
    vertex 0 0 1.0
  endloop
endfacet
facet normal 0.0 0.0 -1.0
  outer loop
    vertex 0 0 0.0
    vertex 1.694444851 -0.894066712417 0.0
    vertex 1.66822282979 -0.942088758832 0.0
  endloop
endfacet
facet normal 0.0 0.0 1.0
  outer loop
    vertex 1.66822282979 -0.942088758832 1.0
    vertex 1.694444851 -0.894066712417 1.0
    vertex 0 0 1.0
  endloop
endfacet
facet normal 0.0 0.0 -1.0
  outer loop
    vertex 0 0 0.0
    vertex 1.86006219765 -0.91453100985 0.0
    vertex 1.694444851 -0.894066712417 0.0
  endloop
endfacet
facet normal 0.0 0.0 1.0
  outer loop
    vertex 1.694444851 -0.894066712417 1.0
    vertex 1.86006219765 -0.91453100985 1.0
    vertex 0 0 1.0
  endloop
endfacet
facet normal 0.0 0.0 -1.0
  outer loop
    vertex 0 0 0.0
    vertex 1.88541904492 -0.861042026949 0.0
    vertex 1.86006219765 -0.91453100985 0.0
  endloop
endfacet
facet normal 0.0 0.0 1.0
  outer loop
    vertex 1.86006219765 -0.91453100985 1.0
    vertex 1.88541904492 -0.861042026949 1.0
    vertex 0 0 1.0
  endloop
endfacet
facet normal 0.0 0.0 -1.0
  outer loop
    vertex 0 0 0.0
    vertex 1.76473893775 -0.745784902598 0.0
    vertex 1.88541904492 -0.861042026949 0.0
  endloop
endfacet
facet normal 0.0 0.0 1.0
  outer loop
    vertex 1.88541904492 -0.861042026949 1.0
    vertex 1.76473893775 -0.745784902598 1.0
    vertex 0 0 1.0
  endloop
endfacet
facet normal 0.0 0.0 -1.0
  outer loop
    vertex 0 0 0.0
    vertex 1.78531593611 -0.695086791422 0.0
    vertex 1.76473893775 -0.745784902598 0.0
  endloop
endfacet
facet normal 0.0 0.0 1.0
  outer loop
    vertex 1.76473893775 -0.745784902598 1.0
    vertex 1.78531593611 -0.695086791422 1.0
    vertex 0 0 1.0
  endloop
endfacet
facet normal 0.0 0.0 -1.0
  outer loop
    vertex 0 0 0.0
    vertex 1.95218649918 -0.696538742301 0.0
    vertex 1.78531593611 -0.695086791422 0.0
  endloop
endfacet
facet normal 0.0 0.0 1.0
  outer loop
    vertex 1.78531593611 -0.695086791422 1.0
    vertex 1.95218649918 -0.696538742301 1.0
    vertex 0 0 1.0
  endloop
endfacet
facet normal 0.0 0.0 -1.0
  outer loop
    vertex 0 0 0.0
    vertex 1.97128077923 -0.640507951977 0.0
    vertex 1.95218649918 -0.696538742301 0.0
  endloop
endfacet
facet normal 0.0 0.0 1.0
  outer loop
    vertex 1.95218649918 -0.696538742301 1.0
    vertex 1.97128077923 -0.640507951977 1.0
    vertex 0 0 1.0
  endloop
endfacet
facet normal 0.0 0.0 -1.0
  outer loop
    vertex 0 0 0.0
    vertex 1.83824897483 -0.539758599627 0.0
    vertex 1.97128077923 -0.640507951977 0.0
  endloop
endfacet
facet normal 0.0 0.0 1.0
  outer loop
    vertex 1.97128077923 -0.640507951977 1.0
    vertex 1.83824897483 -0.539758599627 1.0
    vertex 0 0 1.0
  endloop
endfacet
facet normal 0.0 0.0 -1.0
  outer loop
    vertex 0 0 0.0
    vertex 1.8529126977 -0.487045351102 0.0
    vertex 1.83824897483 -0.539758599627 0.0
  endloop
endfacet
facet normal 0.0 0.0 1.0
  outer loop
    vertex 1.83824897483 -0.539758599627 1.0
    vertex 1.8529126977 -0.487045351102 1.0
    vertex 0 0 1.0
  endloop
endfacet
facet normal 0.0 0.0 -1.0
  outer loop
    vertex 0 0 0.0
    vertex 2.01886106421 -0.469466027028 0.0
    vertex 1.8529126977 -0.487045351102 0.0
  endloop
endfacet
facet normal 0.0 0.0 1.0
  outer loop
    vertex 1.8529126977 -0.487045351102 1.0
    vertex 2.01886106421 -0.469466027028 1.0
    vertex 0 0 1.0
  endloop
endfacet
facet normal 0.0 0.0 -1.0
  outer loop
    vertex 0 0 0.0
    vertex 2.0314438539 -0.41162387632 0.0
    vertex 2.01886106421 -0.469466027028 0.0
  endloop
endfacet
facet normal 0.0 0.0 1.0
  outer loop
    vertex 2.01886106421 -0.469466027028 1.0
    vertex 2.0314438539 -0.41162387632 1.0
    vertex 0 0 1.0
  endloop
endfacet
facet normal 0.0 0.0 -1.0
  outer loop
    vertex 0 0 0.0
    vertex 1.88779462529 -0.326695717856 0.0
    vertex 2.0314438539 -0.41162387632 0.0
  endloop
endfacet
facet normal 0.0 0.0 1.0
  outer loop
    vertex 2.0314438539 -0.41162387632 1.0
    vertex 1.88779462529 -0.326695717856 1.0
    vertex 0 0 1.0
  endloop
endfacet
facet normal 0.0 0.0 -1.0
  outer loop
    vertex 0 0 0.0
    vertex 1.89635390862 -0.272654529792 0.0
    vertex 1.88779462529 -0.326695717856 0.0
  endloop
endfacet
facet normal 0.0 0.0 1.0
  outer loop
    vertex 1.88779462529 -0.326695717856 1.0
    vertex 1.89635390862 -0.272654529792 1.0
    vertex 0 0 1.0
  endloop
endfacet
facet normal 0.0 0.0 -1.0
  outer loop
    vertex 0 0 0.0
    vertex 2.05921668781 -0.236273104137 0.0
    vertex 1.89635390862 -0.272654529792 0.0
  endloop
endfacet
facet normal 0.0 0.0 1.0
  outer loop
    vertex 1.89635390862 -0.272654529792 1.0
    vertex 2.05921668781 -0.236273104137 1.0
    vertex 0 0 1.0
  endloop
endfacet
facet normal 0.0 0.0 -1.0
  outer loop
    vertex 0 0 0.0
    vertex 2.06512395124 -0.177373653938 0.0
    vertex 2.05921668781 -0.236273104137 0.0
  endloop
endfacet
facet normal 0.0 0.0 1.0
  outer loop
    vertex 2.05921668781 -0.236273104137 1.0
    vertex 2.06512395124 -0.177373653938 1.0
    vertex 0 0 1.0
  endloop
endfacet
facet normal 0.0 0.0 -1.0
  outer loop
    vertex 0 0 0.0
    vertex 1.9127299858 -0.109373857786 0.0
    vertex 2.06512395124 -0.177373653938 0.0
  endloop
endfacet
facet normal 0.0 0.0 1.0
  outer loop
    vertex 2.06512395124 -0.177373653938 1.0
    vertex 1.9127299858 -0.109373857786 1.0
    vertex 0 0 1.0
  endloop
endfacet
facet normal 0.0 0.0 -1.0
  outer loop
    vertex 0 0 0.0
    vertex 1.91507324623 -0.0547092397133 0.0
    vertex 1.9127299858 -0.109373857786 0.0
  endloop
endfacet
facet normal 0.0 0.0 1.0
  outer loop
    vertex 1.9127299858 -0.109373857786 1.0
    vertex 1.91507324623 -0.0547092397133 1.0
    vertex 0 0 1.0
  endloop
endfacet
facet normal 0.0 0.0 -1.0
  outer loop
    vertex 0 0 0.0
    vertex 2.07272727273 -5.0767176401e-16 0.0
    vertex 1.91507324623 -0.0547092397133 0.0
  endloop
endfacet
facet normal 0.0 0.0 1.0
  outer loop
    vertex 1.91507324623 -0.0547092397133 1.0
    vertex 2.07272727273 -5.0767176401e-16 1.0
    vertex 0 0 1.0
  endloop
endfacet
facet normal 0.0 0.0 -1.0
  outer loop
    vertex 0 0 0.0
    vertex 2.07188199968 0.0591889052815 0.0
    vertex 2.07272727273 -5.0767176401e-16 0.0
  endloop
endfacet
facet normal 0.0 0.0 1.0
  outer loop
    vertex 2.07272727273 -5.0767176401e-16 1.0
    vertex 2.07188199968 0.0591889052815 1.0
    vertex 0 0 1.0
  endloop
endfacet
facet normal 0.0 0.0 -1.0
  outer loop
    vertex 0 0 0.0
    vertex 1.9127299858 0.109373857786 0.0
    vertex 2.07188199968 0.0591889052815 0.0
  endloop
endfacet
facet normal 0.0 0.0 1.0
  outer loop
    vertex 2.07188199968 0.0591889052815 1.0
    vertex 1.9127299858 0.109373857786 1.0
    vertex 0 0 1.0
  endloop
endfacet
facet normal 0.0 0.0 -1.0
  outer loop
    vertex 0 0 0.0
    vertex 1.90882667535 0.163949268971 0.0
    vertex 1.9127299858 0.109373857786 0.0
  endloop
endfacet
facet normal 0.0 0.0 1.0
  outer loop
    vertex 1.9127299858 0.109373857786 1.0
    vertex 1.90882667535 0.163949268971 1.0
    vertex 0 0 1.0
  endloop
endfacet
facet normal 0.0 0.0 -1.0
  outer loop
    vertex 0 0 0.0
    vertex 2.05921668781 0.236273104137 0.0
    vertex 1.90882667535 0.163949268971 0.0
  endloop
endfacet
facet normal 0.0 0.0 1.0
  outer loop
    vertex 1.90882667535 0.163949268971 1.0
    vertex 2.05921668781 0.236273104137 1.0
    vertex 0 0 1.0
  endloop
endfacet
endsolid
